<svg width="112" height="34" viewBox="0 0 112 34" fill="none" xmlns="http://www.w3.org/2000/svg">
<path d="M4.18417 5.25758C4.81186 5.72512 5.57911 5.95843 6.48437 5.95843C7.38963 5.95843 8.16394 5.72512 8.80669 5.25758C9.44883 4.79066 9.77066 4.03079 9.77066 2.97921C9.77066 1.92763 9.44883 1.13212 8.80669 0.679025C8.16394 0.226549 7.40469 0 6.52863 0C5.59325 0 4.81217 0.226849 4.18417 0.679025C3.55587 1.13242 3.24234 1.89905 3.24234 2.97921C3.24234 4.05938 3.55587 4.79066 4.18417 5.25758Z" fill="white"/>
<path d="M11.3042 31.2178C10.7783 31.0862 10.3547 30.809 10.0335 30.3854C9.71165 29.9624 9.5515 29.3271 9.5515 28.4796V10.0771H0.174903V12.2239H0.569593C1.06541 12.2239 1.56215 12.283 2.0592 12.3995C2.55563 12.5166 2.97891 12.7717 3.32995 13.1661C3.68037 13.5605 3.85558 14.1669 3.85558 14.9846V28.5235C3.85558 29.371 3.68713 29.9987 3.35208 30.4075C3.01579 30.817 2.5919 31.0866 2.08133 31.2181C1.56983 31.3497 1.06572 31.4152 0.569593 31.4152H0V33.562H13.3634V31.4152H12.8375C12.3407 31.4152 11.8296 31.3497 11.3042 31.2181V31.2178Z" fill="white"/>
<path d="M27.041 30.3193C27.2888 30.7576 27.6392 31.05 28.0926 31.1957L28.0923 31.196C28.5448 31.3426 29.0925 31.4152 29.7353 31.4152H29.9108V33.562H20.9725V18.8841C20.9725 16.9857 20.6728 15.5176 20.0743 14.4805C19.4756 13.4443 18.4313 12.9251 16.9417 12.9251C15.8603 12.9251 15.0061 13.2469 14.3784 13.8891C13.7501 14.5318 12.6478 16.0574 12.6478 16.0574V13.3631C13.2316 12.2531 13.8669 11.4284 14.5536 10.8877C15.2397 10.3473 15.9845 9.98953 16.7884 9.81432C17.5913 9.63881 18.4602 9.5512 19.3953 9.5512C21.6737 9.5512 23.455 10.2231 24.7408 11.5667C26.026 12.9107 26.6688 15.0719 26.6688 18.0514V28.3041C26.6688 29.2096 26.7923 29.8813 27.041 30.3193Z" fill="white"/>
<path d="M43.6157 30.9329C42.6222 30.9329 41.8698 30.6043 41.3592 29.9471C40.8477 29.2896 40.5926 28.2752 40.5926 26.9018V12.8808H46.2445V10.0768H40.5926V4.64372H37.5691C37.3644 5.6953 37.0874 6.58672 36.7367 7.31647C36.3862 8.04713 35.9919 8.66068 35.5538 9.15681C35.0863 9.62434 34.5023 10.019 33.8011 10.3396C33.1003 10.6615 32.3551 10.8216 31.5664 10.8216V12.8808H34.8963V27.1209C34.8963 29.6621 35.4441 31.444 36.5393 32.4664C37.6349 33.4891 39.2191 33.9997 41.2934 33.9997C42.5202 33.9997 43.608 33.8902 44.5576 33.6711C45.5065 33.4522 46.2006 33.2404 46.6389 33.0357V30.5385C46.1711 30.6556 45.6968 30.7506 45.2148 30.8234C44.7331 30.8966 44.1995 30.9329 43.6157 30.9329Z" fill="white"/>
<path d="M88.789 13.2097H88.7884L88.789 13.21L88.789 13.2097Z" fill="white"/>
<path d="M92.5124 12.18C91.665 12.8666 90.424 13.2096 88.789 13.2097C88.9067 12.307 88.8394 11.2562 88.4229 10.6157C87.9956 9.95817 87.4737 9.66216 86.8263 9.66216C85.7247 9.66216 85.0781 10.617 84.4685 11.5173C84.418 11.5919 84.3677 11.6662 84.3174 11.7395C83.9365 12.2949 82.7872 14.0495 81.8712 15.4531C81.0588 16.6977 80.6263 18.1516 80.6263 19.6379V28.4793C80.6263 29.3268 80.772 29.9621 81.0643 30.3851C81.356 30.8087 81.7504 31.0859 82.2475 31.2175C82.7439 31.3491 83.284 31.4145 83.8683 31.4145H85.2267V33.5613H71.3376V31.4145H71.4689C72.1402 31.4145 72.7319 31.342 73.2434 31.1954C73.754 31.0494 74.1634 30.7506 74.4702 30.2972C74.7767 29.8447 74.9301 29.1657 74.9301 28.2598V15.2028C74.9301 14.3265 74.7834 13.677 74.492 13.2531C74.2 12.8301 73.8056 12.5522 73.3092 12.4207C72.8122 12.2891 72.2422 12.2236 71.6004 12.2236H71.4689V10.0768H79.5311L80.3635 13.8448H80.5826C80.5826 13.8448 82.2118 11.5366 83.7254 9.38489C84.2455 8.64531 85.132 7.52734 86.2288 6.79023C87.1297 6.18466 88.1871 5.88312 89.1714 5.85545C90.7634 5.81057 91.6831 6.21141 92.3227 6.73704C93.0697 7.3509 93.6347 8.17932 93.7158 9.31758C93.7988 10.4835 93.3589 11.4942 92.5124 12.18Z" fill="white"/>
<path d="M111.346 31.4149C110.761 31.4149 110.221 31.3568 109.725 31.2393C109.228 31.1231 108.841 30.8671 108.564 30.4727C108.286 30.078 108.147 29.458 108.147 28.6102V10.0771H98.99V12.2239H99.1216C99.7351 12.2239 100.29 12.2894 100.787 12.421C101.283 12.5525 101.685 12.8227 101.991 13.2316C102.298 13.641 102.452 14.2828 102.452 15.1592V23.7907C102.452 25.1349 102.291 26.3251 101.97 27.3619C101.648 28.3991 101.151 29.2023 100.48 29.7715C99.8073 30.3411 98.931 30.6261 97.8508 30.6261C96.8872 30.6261 96.127 30.378 95.5725 29.881C95.0173 29.3849 94.6306 28.6763 94.4118 27.756C94.1926 26.836 94.0832 25.7478 94.0832 24.4918V17.5141H88.3872V25.3682C88.3872 28.3474 89.0075 30.5314 90.2494 31.9184C91.4906 33.3062 93.2504 33.9997 95.5294 33.9997C96.9019 33.9997 98.1868 33.7731 99.3847 33.3207C100.582 32.8682 101.619 31.8529 102.495 30.2757H102.715L103.547 33.5617H111.609V31.4149H111.346Z" fill="white"/>
<path d="M51.2583 12.6838C53.0836 10.596 55.6466 9.5512 58.9477 9.5512L58.9483 9.55181C62.0157 9.55181 64.418 10.4356 66.1563 12.2027C67.8936 13.9699 68.7629 16.5913 68.7629 20.0673V22.2141H56.9506V19.5853H62.9354C62.9354 17.3066 62.6357 15.5102 62.0372 14.1958C61.4381 12.8815 60.3657 12.2242 58.9922 12.2242C57.6188 12.2242 56.5387 12.8526 55.7499 14.1082C54.9608 15.3642 54.5081 17.1904 54.3916 19.585L54.3039 22.2138C54.3916 25.252 54.9535 27.4646 55.9909 28.8515C57.0271 30.2394 58.5103 30.9329 60.4379 30.9329C61.9561 30.9329 63.2419 30.5975 64.2935 29.9249C65.3454 29.2536 66.1338 28.4648 66.6598 27.5593C66.9807 27.7056 67.2361 27.9466 67.4267 28.2822C67.616 28.6182 67.7113 29.0052 67.7113 29.4433C67.7113 30.1736 67.4116 30.8892 66.8131 31.5904C66.214 32.2912 65.3082 32.8685 64.0964 33.321C62.8841 33.7734 61.3284 34 59.43 34C55.9245 34 53.2302 32.9416 51.3463 30.8234C49.462 28.7058 48.5198 25.7481 48.5198 21.951C48.5198 17.8618 49.4324 14.7725 51.2583 12.6838Z" fill="white"/>
</svg>
